<?xml version="1.0" ?><svg xmlns="http://www.w3.org/2000/svg" width="16" height="16" viewBox="0 0 16 16" fill="none"><path fill-rule="evenodd" clip-rule="evenodd" d="M2 10.25C2 13.1495 4.3505 15.5 7.25 15.5H8.75C10.0416 15.5 11.2242 15.0336 12.1387 14.26L13.8787 16L16 13.8787L13.8025 11.6812C13.9312 11.2262 14 10.7462 14 10.25V5.75C14 2.85051 11.6495 0.5 8.75 0.5H7.25C4.35051 0.5 2 2.8505 2 5.75V10.25ZM7.25 3.5C6.00736 3.5 5 4.50736 5 5.75L5 10.25C5 11.4926 6.00736 12.5 7.25 12.5H8.75C9.99264 12.5 11 11.4926 11 10.25V5.75C11 4.50736 9.99264 3.5 8.75 3.5H7.25Z" fill="black"/></svg>